<svg xmlns="http://www.w3.org/2000/svg" version="1.1" xmlns:xlink="http://www.w3.org/1999/xlink" width="512" height="512" x="0" y="0" viewBox="0 0 682.667 682.667" style="enable-background:new 0 0 512 512" xml:space="preserve"><g><defs><clipPath id="a" clipPathUnits="userSpaceOnUse"><path d="M0 512h512V0H0Z"  opacity="1" data-original="#000000"></path></clipPath></defs><g clip-path="url(#a)" transform="matrix(1.33333 0 0 -1.33333 0 682.667)"><path d="M0 0v157.85c0 21.18-17.17 38.35-38.34 38.35h-327.14c-21.18 0-38.35-17.17-38.35-38.35V-86.77c0-24.59 19.93-44.51 44.51-44.51h227.6" style="stroke-width:15;stroke-linecap:round;stroke-linejoin:round;stroke-miterlimit:10;stroke-dasharray:none;stroke-opacity:1" transform="translate(411.33 284.114)" fill="none"  stroke-width="15" stroke-linecap="round" stroke-linejoin="round" stroke-miterlimit="10" stroke-dasharray="none" stroke-opacity="" data-original="#000000"></path><path d="M0 0h403.833" style="stroke-width:15;stroke-linecap:round;stroke-linejoin:round;stroke-miterlimit:10;stroke-dasharray:none;stroke-opacity:1" transform="translate(7.5 407.011)" fill="none"  stroke-width="15" stroke-linecap="round" stroke-linejoin="round" stroke-miterlimit="10" stroke-dasharray="none" stroke-opacity="" data-original="#000000"></path><path d="M0 0c0 9.332-7.565 16.897-16.896 16.897-9.333 0-16.897-7.565-16.897-16.897 0-9.332 7.564-16.897 16.897-16.897C-7.565-16.897 0-9.332 0 0Z" style="stroke-width:15;stroke-linecap:round;stroke-linejoin:round;stroke-miterlimit:10;stroke-dasharray:none;stroke-opacity:1" transform="translate(63.89 442.886)" fill="none"  stroke-width="15" stroke-linecap="round" stroke-linejoin="round" stroke-miterlimit="10" stroke-dasharray="none" stroke-opacity="" data-original="#000000"></path><path d="M0 0c0 9.332-7.565 16.897-16.897 16.897-9.332 0-16.896-7.565-16.896-16.897 0-9.332 7.564-16.897 16.896-16.897S0-9.332 0 0Z" style="stroke-width:15;stroke-linecap:round;stroke-linejoin:round;stroke-miterlimit:10;stroke-dasharray:none;stroke-opacity:1" transform="translate(117.249 442.886)" fill="none"  stroke-width="15" stroke-linecap="round" stroke-linejoin="round" stroke-miterlimit="10" stroke-dasharray="none" stroke-opacity="" data-original="#000000"></path><path d="M0 0c0 9.332-7.565 16.897-16.897 16.897-9.332 0-16.896-7.565-16.896-16.897 0-9.332 7.564-16.897 16.896-16.897S0-9.332 0 0Z" style="stroke-width:15;stroke-linecap:round;stroke-linejoin:round;stroke-miterlimit:10;stroke-dasharray:none;stroke-opacity:1" transform="translate(170.607 442.886)" fill="none"  stroke-width="15" stroke-linecap="round" stroke-linejoin="round" stroke-miterlimit="10" stroke-dasharray="none" stroke-opacity="" data-original="#000000"></path><path d="m0 0-2.788 1.157C-8.916 3.69-12.84 9.69-12.835 16.322v.219c-.005 6.632 3.919 12.632 10.047 15.17L0 32.863c13.738 5.694 20.257 21.435 14.574 35.173C10.282 78.399.255 84.653-10.312 84.653a26.84 26.84 0 0 1-10.292-2.054l-2.793-1.157c-6.123-2.533-13.136-1.066-17.816 3.624-.056.051-.107.107-.158.158-4.7 4.69-6.188 11.709-3.645 17.846l1.152 2.789c5.694 13.743-.83 29.483-14.563 35.177a26.888 26.888 0 0 1-10.287 2.055c-10.561 0-20.588-6.265-24.88-16.628l-1.162-2.799c-2.539-6.132-8.554-10.047-15.191-10.037h-.219c-6.627-.005-12.626 3.91-15.165 10.037l-1.162 2.799c-5.689 13.732-21.435 20.257-35.168 14.573-10.368-4.292-16.628-14.318-16.628-24.88 0-3.436.663-6.923 2.055-10.297l1.157-2.789c2.538-6.127 1.076-13.141-3.614-17.825l-.153-.153c-4.69-4.705-11.714-6.194-17.846-3.655l-2.804 1.162c-13.733 5.694-29.479-.831-35.162-14.563a26.807 26.807 0 0 1-2.06-10.292c0-10.567 6.26-20.589 16.628-24.881l2.789-1.157c6.112-2.528 10.021-8.518 10.042-15.129v-.219c.01-6.642-3.905-12.662-10.042-15.201L-220.088 0c-10.368-4.292-16.628-14.309-16.628-24.881 0-3.435.663-6.922 2.06-10.286 5.683-13.738 21.429-20.258 35.162-14.569l2.804 1.162c6.132 2.539 13.156 1.051 17.846-3.655l.153-.152c4.69-4.685 6.152-11.699 3.614-17.821l-1.157-2.794a26.936 26.936 0 0 1-2.055-10.296c0-10.562 6.26-20.589 16.628-24.881 13.733-5.684 29.479.841 35.168 14.573l1.162 2.804c2.539 6.122 8.538 10.037 15.165 10.032h.219c6.637.01 12.652-3.905 15.191-10.037l1.162-2.799c4.292-10.362 14.319-16.622 24.88-16.622 3.431 0 6.918.657 10.287 2.049 13.733 5.694 20.257 21.435 14.563 35.177l-1.152 2.788c-2.543 6.138-1.055 13.162 3.645 17.847.051.056.102.107.158.158 4.68 4.69 11.693 6.158 17.816 3.624l2.793-1.157a26.832 26.832 0 0 1 10.292-2.049c10.567 0 20.594 6.249 24.886 16.618C20.257-21.435 13.738-5.694 0 0Z" style="stroke-width:15;stroke-linecap:round;stroke-linejoin:round;stroke-miterlimit:10;stroke-dasharray:none;stroke-opacity:1" transform="translate(487.873 142.196)" fill="none"  stroke-width="15" stroke-linecap="round" stroke-linejoin="round" stroke-miterlimit="10" stroke-dasharray="none" stroke-opacity="" data-original="#000000"></path><path d="M0 0a53.233 53.233 0 0 1 4.42 21.3c0 29.47-23.89 53.35-53.35 53.35s-53.35-23.88-53.35-53.35c0-29.46 23.89-53.34 53.35-53.34 11.21 0 21.61 3.45 30.19 9.36" style="stroke-width:15;stroke-linecap:round;stroke-linejoin:round;stroke-miterlimit:10;stroke-dasharray:none;stroke-opacity:1" transform="translate(426.76 137.31)" fill="none"  stroke-width="15" stroke-linecap="round" stroke-linejoin="round" stroke-miterlimit="10" stroke-dasharray="none" stroke-opacity="" data-original="#000000"></path><path d="M0 0c-10.783 10.783-10.787 28.27-.004 39.053 10.787 10.787 28.274 10.782 39.057 0 10.782-10.783 10.787-28.27 0-39.057C28.27-10.788 10.783-10.783 0 0Z" style="stroke-width:15;stroke-linecap:round;stroke-linejoin:round;stroke-miterlimit:10;stroke-dasharray:none;stroke-opacity:1" transform="translate(358.303 139.09)" fill="none"  stroke-width="15" stroke-linecap="round" stroke-linejoin="round" stroke-miterlimit="10" stroke-dasharray="none" stroke-opacity="" data-original="#000000"></path><path d="m0 0-39.053-39.053" style="stroke-width:15;stroke-linecap:round;stroke-linejoin:round;stroke-miterlimit:10;stroke-dasharray:none;stroke-opacity:1" transform="translate(397.356 178.144)" fill="none"  stroke-width="15" stroke-linecap="round" stroke-linejoin="round" stroke-miterlimit="10" stroke-dasharray="none" stroke-opacity="" data-original="#000000"></path><path d="M0 0v-8.76c0-7.95-6.45-14.4-14.4-14.4h-7.79" style="stroke-width:15;stroke-linecap:round;stroke-linejoin:round;stroke-miterlimit:10;stroke-dasharray:none;stroke-opacity:1" transform="translate(161.45 247.274)" fill="none"  stroke-width="15" stroke-linecap="round" stroke-linejoin="round" stroke-miterlimit="10" stroke-dasharray="none" stroke-opacity="" data-original="#000000"></path><path d="M0 0h-6.749a17.384 17.384 0 0 0-12.334 5.107 17.384 17.384 0 0 0-5.107 12.334c0 9.633 7.809 17.442 17.441 17.442h6.743" style="stroke-width:15;stroke-linecap:round;stroke-linejoin:round;stroke-miterlimit:10;stroke-dasharray:none;stroke-opacity:1" transform="translate(69.074 288.894)" fill="none"  stroke-width="15" stroke-linecap="round" stroke-linejoin="round" stroke-miterlimit="10" stroke-dasharray="none" stroke-opacity="" data-original="#000000"></path><path d="m0 0 8.78-52.57h-38.14L-39.3 6.97" style="stroke-width:15;stroke-linecap:round;stroke-linejoin:round;stroke-miterlimit:10;stroke-dasharray:none;stroke-opacity:1" transform="translate(134.66 251.674)" fill="none"  stroke-width="15" stroke-linecap="round" stroke-linejoin="round" stroke-miterlimit="10" stroke-dasharray="none" stroke-opacity="" data-original="#000000"></path><path d="M0 0h-43.812c-6.486 0-11.745 5.259-11.745 11.746 0 6.486 5.259 11.745 11.745 11.745H0c6.487 0 11.746-5.259 11.746-11.745C11.746 5.259 6.487 0 0 0Z" style="stroke-width:15;stroke-linecap:round;stroke-linejoin:round;stroke-miterlimit:10;stroke-dasharray:none;stroke-opacity:1" transform="translate(146.306 175.616)" fill="none"  stroke-width="15" stroke-linecap="round" stroke-linejoin="round" stroke-miterlimit="10" stroke-dasharray="none" stroke-opacity="" data-original="#000000"></path><path d="M0 0c13.07-6.09 22.13-19.35 22.13-34.72 0-15.37-9.06-28.62-22.13-34.71" style="stroke-width:15;stroke-linecap:round;stroke-linejoin:round;stroke-miterlimit:10;stroke-dasharray:none;stroke-opacity:1" transform="translate(225.26 341.054)" fill="none"  stroke-width="15" stroke-linecap="round" stroke-linejoin="round" stroke-miterlimit="10" stroke-dasharray="none" stroke-opacity="" data-original="#000000"></path><path d="M0 0v0c8.928 0 16.166 7.237 16.166 16.165v128.471c0 8.928-7.238 16.165-16.166 16.165s-16.165-7.237-16.165-16.165V16.165C-16.165 7.237-8.928 0 0 0Z" style="stroke-width:15;stroke-linecap:round;stroke-linejoin:round;stroke-miterlimit:10;stroke-dasharray:none;stroke-opacity:1" transform="translate(209.1 225.938)" fill="none"  stroke-width="15" stroke-linecap="round" stroke-linejoin="round" stroke-miterlimit="10" stroke-dasharray="none" stroke-opacity="" data-original="#000000"></path><path d="m0 0 58.21 9.56v-128.47l-91.51 15.03c-19.03 3.13-32.99 19.58-32.99 38.86v20.7c0 19.28 13.96 35.73 32.99 38.85l3.77.62" style="stroke-width:15;stroke-linecap:round;stroke-linejoin:round;stroke-miterlimit:10;stroke-dasharray:none;stroke-opacity:1" transform="translate(134.72 361.01)" fill="none"  stroke-width="15" stroke-linecap="round" stroke-linejoin="round" stroke-miterlimit="10" stroke-dasharray="none" stroke-opacity="" data-original="#000000"></path></g></g></svg>