<svg xmlns="http://www.w3.org/2000/svg" version="1.1" xmlns:xlink="http://www.w3.org/1999/xlink" width="512" height="512" x="0" y="0" viewBox="0 0 512 512" style="enable-background:new 0 0 512 512" xml:space="preserve"><g><path d="M504 239.172c-.001-10.629-5.757-19.938-14.315-24.975a28.8 28.8 0 0 0 5.485-16.94c0-15.967-12.99-28.957-28.957-28.957H414a28.71 28.71 0 0 0-13.123 3.156c3.269-6.092 5.07-11.882 5.686-16.348.05-.362.075-.728.075-1.093v-34.114c0-33.492-27.251-60.74-60.747-60.74a8 8 0 0 0-8 8v4.984a204.093 204.093 0 0 0-39.882-14.965l-13.186-34.258a8 8 0 0 0-7.466-5.126h-62.309a8 8 0 0 0-7.466 5.127l-13.188 34.262a204.02 204.02 0 0 0-52.119 21.606L108.702 63.88a7.995 7.995 0 0 0-8.903 1.654l-44.061 44.059a8 8 0 0 0-1.655 8.904l14.914 33.579a204.09 204.09 0 0 0-21.606 52.114l-34.265 13.19A8 8 0 0 0 8 224.846v62.308a8 8 0 0 0 5.126 7.466l34.265 13.19a204.11 204.11 0 0 0 21.606 52.113l-14.914 33.578a7.999 7.999 0 0 0 1.654 8.903l44.059 44.061a8 8 0 0 0 8.904 1.655l33.567-14.908a204.064 204.064 0 0 0 52.129 21.609l13.186 34.257a8 8 0 0 0 7.466 5.126h62.309a8 8 0 0 0 7.466-5.126l13.189-34.266a204.087 204.087 0 0 0 52.114-21.606l33.579 14.914a8.002 8.002 0 0 0 8.904-1.654l44.059-44.059a8 8 0 0 0 1.654-8.904l-14.908-33.567a206.85 206.85 0 0 0 4.442-7.976h19.98c7.711 0 14.976-3.019 20.456-8.498 5.481-5.48 8.5-12.746 8.5-20.458a28.788 28.788 0 0 0-4.526-15.532c10.031-4.555 17.026-14.669 17.026-26.385a28.782 28.782 0 0 0-4.076-14.802c10.963-4.128 18.783-14.723 18.784-27.113zm-99.143-51.061c2.458-2.458 5.705-3.812 9.144-3.812H466.213c7.145 0 12.957 5.812 12.957 12.957s-5.812 12.957-12.958 12.957h-52.209c-7.146 0-12.958-5.812-12.958-12.957 0-3.438 1.353-6.686 3.812-9.145zM353.891 75.877c20.869 3.782 36.747 22.084 36.747 44.024v33.516c-.884 5.361-4.575 14.078-12.287 21.796a8 8 0 0 0-.941 10.175c6.446 9.411 8.623 18.176 6.655 26.794-3.764 16.484-22.129 28.578-29.851 33.013a8.001 8.001 0 0 0 7.969 13.875c4.385-2.519 9.971-6.117 15.522-10.753a29.098 29.098 0 0 0 12.824 15.831 28.813 28.813 0 0 0-5.485 16.94c.001 8.24 3.46 15.687 9.004 20.965-.17.162-.338.326-.504.492-5.481 5.481-8.5 12.747-8.499 20.458a28.684 28.684 0 0 0 4.207 15.008c-42.723 7.271-68.355 9.775-93.918-13.072l-.001-137.336c2.827-2.061 5.729-4.106 8.753-6.237 23.346-16.458 49.806-35.111 49.806-70.227V75.877zm-74.559 115.691.001 128.864h-39.832V191.568zm5.362-16h-53.193a8 8 0 0 0-8 8v144.864a8 8 0 0 0 8 8h52.693c6.405 5.798 12.826 10.27 19.379 13.648-17.2 10.56-36.782 16.084-57.37 16.084-60.745 0-110.164-49.419-110.164-110.163 0-60.745 49.419-110.165 110.164-110.165 20.556 0 40.215 5.576 57.469 16.177-2.882 2.097-15.617 11.082-18.978 13.555zm100.486 255.7-32.363-14.374a7.996 7.996 0 0 0-7.441.499 188.2 188.2 0 0 1-55.187 22.881 7.997 7.997 0 0 0-5.613 4.908l-12.712 33.022h-51.322l-12.707-33.014a7.996 7.996 0 0 0-5.614-4.908 188.225 188.225 0 0 1-55.201-22.884 8 8 0 0 0-7.441-.499l-32.352 14.368-36.29-36.292 14.374-32.362a8.002 8.002 0 0 0-.499-7.441 188.227 188.227 0 0 1-22.881-55.187 7.997 7.997 0 0 0-4.908-5.613L24 281.661v-51.322l33.021-12.711a7.999 7.999 0 0 0 4.908-5.613 188.25 188.25 0 0 1 22.881-55.188 8.002 8.002 0 0 0 .499-7.441l-14.374-32.363 36.292-36.29 32.358 14.371a7.993 7.993 0 0 0 7.442-.5 188.111 188.111 0 0 1 55.19-22.878 7.999 7.999 0 0 0 5.614-4.91l12.709-33.02h51.322l12.707 33.015a7.999 7.999 0 0 0 5.613 4.908 188.307 188.307 0 0 1 47.706 18.509v20.911c0 17.363-8.765 29.658-20.946 40.404-20.908-14.211-45.225-21.707-70.741-21.707-69.567 0-126.164 56.598-126.164 126.165 0 69.566 56.597 126.163 126.164 126.163 27.32 0 54.096-8.983 75.855-25.36 7.124 1.618 14.499 2.303 22.258 2.303 16.992 0 35.814-3.264 57.796-7.076l5.089-.88c.832.2 1.673.369 2.525.495a185.858 185.858 0 0 1-2.124 3.537 8.001 8.001 0 0 0-.5 7.442l14.368 32.352zm71.799-99.121c-2.459 2.459-5.706 3.812-9.145 3.812H414c-3.438 0-6.685-1.354-9.144-3.812-2.459-2.459-3.812-5.707-3.812-9.146 0-3.438 1.354-6.685 3.812-9.143 2.459-2.459 5.707-3.813 9.146-3.813H447.834c7.145 0 12.957 5.812 12.957 12.958.001 3.438-1.353 6.686-3.812 9.144zm3.356-38.101h-46.333c-7.145-.001-12.957-5.814-12.958-12.958.001-7.146 5.813-12.958 12.959-12.958h46.332c7.145 0 12.957 5.812 12.957 12.957s-5.813 12.958-12.957 12.959zm14.706-41.916h-69.867c-7.146 0-12.958-5.812-12.958-12.957 0-7.146 5.812-12.959 12.958-12.959h69.867c7.146 0 12.958 5.813 12.959 12.958-.001 7.145-5.813 12.958-12.959 12.958z"  opacity="1" data-original="#000000"></path></g></svg>