<svg xmlns="http://www.w3.org/2000/svg" version="1.1" xmlns:xlink="http://www.w3.org/1999/xlink" width="512" height="512" x="0" y="0" viewBox="0 0 64 64" style="enable-background:new 0 0 512 512" xml:space="preserve"><g><path d="m51.888 39.51 3.192-2.32a5.414 5.414 0 0 0 1.97-6.061l-1.22-3.75a3.347 3.347 0 0 1 0-2.075l1.22-3.751a5.407 5.407 0 0 0-1.97-6.06l-3.192-2.319c-.576-.42-.998-1-1.22-1.678l-1.217-3.753a5.412 5.412 0 0 0-5.157-3.745H40.35a3.337 3.337 0 0 1-1.973-.641l-3.19-2.318v-.002a5.411 5.411 0 0 0-6.373.002l-3.192 2.318a3.336 3.336 0 0 1-1.972.641h-3.945a5.407 5.407 0 0 0-5.156 3.746l-1.218 3.752a3.34 3.34 0 0 1-1.22 1.678l-3.19 2.317a5.408 5.408 0 0 0-1.97 6.062l1.219 3.75c.22.679.22 1.396 0 2.076l-1.22 3.75a5.41 5.41 0 0 0 1.97 6.062l3.192 2.318c.577.42.999 1 1.219 1.678l.542 1.668L7.8 52.86c-.6.99-.62 2.17-.06 3.18.57 1 1.59 1.6 2.75 1.61l5.23.01 2.43 4.64a3.109 3.109 0 0 0 2.69 1.7h.11c1.11 0 2.1-.56 2.68-1.52l6.233-10.256a5.398 5.398 0 0 0 2.137.458 5.4 5.4 0 0 0 2.145-.461L40.37 62.48c.58.96 1.58 1.52 2.69 1.52h.1c1.15-.04 2.16-.67 2.69-1.69l2.43-4.65 5.24-.01a3.15 3.15 0 0 0 2.74-1.61c.56-1.01.54-2.19-.06-3.18l-6.073-10.005.541-1.666a3.33 3.33 0 0 1 1.22-1.68zM21.87 61.41c-.3.49-.78.52-.96.53-.19-.01-.67-.08-.93-.59l-2.71-5.2c-.18-.34-.53-.55-.92-.55l-5.86-.02c-.57 0-.85-.39-.95-.55-.09-.17-.27-.61.02-1.1l5.18-8.531a5.395 5.395 0 0 0 4.965 3.285h3.945c.712 0 1.395.222 1.972.641l2.49 1.81zm8.157-11.436-3.192-2.318a5.388 5.388 0 0 0-3.185-1.036h-3.945a3.348 3.348 0 0 1-3.192-2.319l-1.219-3.751a5.372 5.372 0 0 0-1.97-2.71l-3.19-2.318a3.352 3.352 0 0 1-1.22-3.755l1.22-3.751a5.389 5.389 0 0 0 0-3.35l-1.22-3.75a3.35 3.35 0 0 1 1.22-3.754l3.19-2.319a5.387 5.387 0 0 0 1.97-2.71l1.219-3.752a3.348 3.348 0 0 1 3.192-2.319h3.945a5.379 5.379 0 0 0 3.186-1.036l3.191-2.317a3.35 3.35 0 0 1 3.947 0l3.19 2.317a5.38 5.38 0 0 0 3.186 1.036h3.944a3.35 3.35 0 0 1 3.193 2.319l1.218 3.754a5.404 5.404 0 0 0 1.97 2.708l3.19 2.32a3.35 3.35 0 0 1 1.22 3.752l-1.22 3.751a5.391 5.391 0 0 0 0 3.351l1.22 3.75a3.354 3.354 0 0 1-1.22 3.755l-3.19 2.318a5.39 5.39 0 0 0-1.97 2.71L47.487 44.3a3.349 3.349 0 0 1-3.193 2.319H40.35a5.396 5.396 0 0 0-3.187 1.036l-3.19 2.319a3.357 3.357 0 0 1-3.946 0zM54.46 55.03c-.1.16-.37.55-.95.55l-5.86.02c-.39 0-.74.21-.91.55l-2.72 5.2c-.26.51-.73.58-.92.59-.2-.01-.67-.04-.97-.53l-6.236-10.28 2.483-1.805a3.341 3.341 0 0 1 1.973-.64h3.944a5.396 5.396 0 0 0 4.965-3.286l5.181 8.531c.29.49.11.93.02 1.1zM32 46.453c-11.09 0-20.11-9.022-20.11-20.112C11.89 15.25 20.91 6.23 32 6.23s20.112 9.021 20.112 20.11c0 11.09-9.022 20.113-20.112 20.113zm0-38.159c-9.951 0-18.046 8.096-18.046 18.047S22.049 44.388 32 44.388s18.048-8.096 18.048-18.047S41.95 8.294 32 8.294zM26.146 38.23a3.197 3.197 0 0 1-1.887-.619 3.195 3.195 0 0 1-1.278-3.175l.87-4.835-3.546-3.402c-.899-.861-1.219-2.133-.834-3.318s1.392-2.025 2.625-2.194l4.868-.667 2.139-4.424a3.197 3.197 0 0 1 2.898-1.818h.001a3.197 3.197 0 0 1 2.897 1.818v.001l2.14 4.423 4.868.667a3.196 3.196 0 0 1 2.623 2.193 3.2 3.2 0 0 1-.83 3.32l-3.55 3.4.872 4.836a3.198 3.198 0 0 1-1.278 3.175 3.188 3.188 0 0 1-3.413.232L32 35.522l-4.33 2.32a3.205 3.205 0 0 1-1.525.387zM32 15.841a1.13 1.13 0 0 0-1.04.653l-2.38 4.923c-.15.31-.446.526-.788.573l-5.416.742c-.45.061-.802.355-.942.786s-.028.876.3 1.19l3.945 3.785c.249.239.363.587.301.927l-.967 5.382c-.081.445.09.87.457 1.139a1.13 1.13 0 0 0 1.224.083l4.818-2.583c.305-.165.672-.165.976 0l4.817 2.583a1.13 1.13 0 0 0 1.224-.083c.369-.268.54-.694.46-1.141l-.968-5.38c-.06-.34.052-.688.302-.927l3.946-3.784a1.13 1.13 0 0 0 .296-1.19 1.129 1.129 0 0 0-.94-.787l-5.416-.742a1.036 1.036 0 0 1-.789-.573l-2.38-4.923a1.133 1.133 0 0 0-1.039-.653z" fill="#000000" opacity="1" data-original="#000000"></path></g></svg>